<?xml version="1.0" encoding="UTF-8" standalone="no"?>
<svg
   xmlns:dc="http://purl.org/dc/elements/1.1/"
   xmlns:cc="http://creativecommons.org/ns#"
   xmlns:rdf="http://www.w3.org/1999/02/22-rdf-syntax-ns#"
   xmlns:svg="http://www.w3.org/2000/svg"
   xmlns="http://www.w3.org/2000/svg"
   viewBox="0 0 1600 1600"
   height="1600"
   width="1600"
   xml:space="preserve"
   id="svg2"
   version="1.1"><metadata
     id="metadata8"><rdf:RDF><cc:Work
         rdf:about=""><dc:format>image/svg+xml</dc:format><dc:type
           rdf:resource="http://purl.org/dc/dcmitype/StillImage" /></cc:Work></rdf:RDF></metadata><defs
     id="defs6"><clipPath
       id="clipPath18"
       clipPathUnits="userSpaceOnUse"><path
         id="path16"
         d="M 0,1200 H 1200 V 0 H 0 Z" /></clipPath></defs><g
     transform="matrix(1.3333333,0,0,-1.3333333,0,1600)"
     id="g10"><g
       id="g12"><g
         clip-path="url(#clipPath18)"
         id="g14"><g
           transform="translate(452.3959,437.9106)"
           id="g20"><path
             id="path22"
             style="fill:#70ab2d;fill-opacity:1;fill-rule:nonzero;stroke:none"
             d="M 0,0 V -2.308 H -44.222 V 0 h 2.81 c 2.452,0 4.425,0.436 5.925,1.308 1.082,0.59 1.908,1.59 2.491,2.995 0.456,0.999 0.686,3.618 0.686,7.855 V 67.8 c 0,4.316 -0.23,7.02 -0.686,8.104 -0.457,1.077 -1.377,2.019 -2.774,2.831 -1.397,0.808 -3.273,1.221 -5.642,1.221 h -2.81 v 2.305 H 0 v -2.305 h -2.811 c -2.452,0 -4.428,-0.436 -5.916,-1.309 -1.091,-0.588 -1.939,-1.578 -2.567,-2.992 -0.453,-1 -0.68,-3.619 -0.68,-7.855 V 12.158 c 0,-4.317 0.235,-7.022 0.711,-8.105 0.475,-1.077 1.414,-2.028 2.811,-2.84 C -7.065,0.405 -5.18,0 -2.811,0 Z" /></g><g
           transform="translate(599.899,520.1718)"
           id="g24"><path
             id="path26"
             style="fill:#70ab2d;fill-opacity:1;fill-rule:nonzero;stroke:none"
             d="m 0,0 v -2.305 c -3.072,-0.501 -5.817,-2.141 -8.229,-4.925 -1.752,-2.082 -4.343,-6.965 -7.795,-14.654 l -29.132,-64.614 h -2.055 l -29.001,67.232 c -3.492,8.102 -5.835,12.868 -7.018,14.278 -1.182,1.413 -3.42,2.304 -6.697,2.683 V 0 h 40.534 v -2.305 h -1.375 c -3.656,0 -6.15,-0.457 -7.484,-1.374 -0.96,-0.624 -1.426,-1.535 -1.426,-2.745 0,-0.745 0.157,-1.627 0.492,-2.645 0.332,-1.019 1.458,-3.761 3.365,-8.203 l 18.031,-42.096 16.717,37.484 c 1.99,4.529 3.213,7.562 3.674,9.103 0.454,1.532 0.69,2.841 0.69,3.927 0,1.248 -0.34,2.352 -0.999,3.304 -0.668,0.96 -1.645,1.692 -2.937,2.182 -1.784,0.705 -4.15,1.063 -7.104,1.063 l 0,2.305 z" /></g><g
           transform="translate(702.3818,517.3661)"
           id="g28"><path
             id="path30"
             style="fill:#70ab2d;fill-opacity:1;fill-rule:nonzero;stroke:none"
             d="m 0,0 c -7.741,0 -13.619,-3.949 -17.651,-11.848 -3.286,-6.486 -4.931,-15.801 -4.931,-27.937 0,-14.431 2.539,-25.1 7.61,-31.994 3.536,-4.827 8.478,-7.24 14.845,-7.24 4.285,0 7.855,1.038 10.723,3.119 3.656,2.659 6.514,6.914 8.549,12.756 2.037,5.838 3.053,13.458 3.053,22.858 0,11.184 -1.039,19.559 -3.119,25.104 -2.077,5.548 -4.731,9.469 -7.952,11.757 C 7.903,-1.14 4.198,0 0,0 M -0.746,3.993 C 12.72,4.495 23.668,0.568 32.082,-7.795 40.5,-16.151 44.707,-26.61 44.707,-39.169 c 0,-10.722 -3.134,-20.156 -9.413,-28.308 -8.317,-10.814 -20.055,-16.215 -35.232,-16.215 -15.221,0 -26.986,5.148 -35.303,15.469 -6.572,8.142 -9.849,17.817 -9.849,29.002 0,12.554 4.267,23.013 12.816,31.396 8.539,8.374 19.052,12.32 31.528,11.818" /></g><g
           transform="translate(852.063,437.9106)"
           id="g32"><path
             id="path34"
             style="fill:#70ab2d;fill-opacity:1;fill-rule:nonzero;stroke:none"
             d="M 0,0 V -2.308 H -44.213 V 0 h 2.81 c 2.452,0 4.425,0.436 5.917,1.308 1.091,0.59 1.915,1.59 2.501,2.995 0.453,0.999 0.685,3.618 0.685,7.855 V 67.8 c 0,4.316 -0.232,7.02 -0.685,8.104 -0.459,1.077 -1.389,2.019 -2.776,2.831 -1.396,0.808 -3.273,1.221 -5.642,1.221 h -2.81 v 2.305 H 0 v -2.305 h -2.802 c -2.453,0 -4.43,-0.436 -5.926,-1.309 -1.082,-0.588 -1.929,-1.578 -2.557,-2.992 -0.457,-1 -0.68,-3.619 -0.68,-7.855 V 12.158 c 0,-4.317 0.235,-7.022 0.711,-8.105 0.475,-1.077 1.414,-2.028 2.801,-2.84 C -7.055,0.405 -5.172,0 -2.802,0 Z" /></g><g
           transform="translate(942.5713,515.6213)"
           id="g36"><path
             id="path38"
             style="fill:#70ab2d;fill-opacity:1;fill-rule:nonzero;stroke:none"
             d="m 0,0 v -37.04 h 3.556 c 5.778,0 10.102,0.523 12.97,1.589 2.871,1.05 5.128,2.966 6.768,5.737 1.646,2.764 2.461,6.371 2.461,10.817 0,6.446 -1.509,11.197 -4.516,14.28 C 18.223,-1.542 13.367,0 6.671,0 Z M 0,-41.478 V -65.17 c 0,-4.581 0.283,-7.453 0.842,-8.635 0.563,-1.191 1.546,-2.134 2.961,-2.84 1.411,-0.708 4.052,-1.066 7.919,-1.066 v -2.307 h -43.28 v 2.307 c 3.905,0 6.553,0.367 7.955,1.096 1.388,0.72 2.364,1.676 2.927,2.84 0.563,1.162 0.838,4.024 0.838,8.605 v 54.875 c 0,4.582 -0.275,7.462 -0.838,8.645 -0.563,1.182 -1.548,2.125 -2.963,2.832 -1.416,0.706 -4.053,1.064 -7.919,1.064 V 4.55 H 7.728 c 10.234,0 17.718,-0.705 22.457,-2.12 4.739,-1.414 8.605,-4.016 11.602,-7.825 2.986,-3.805 4.491,-8.264 4.491,-13.375 0,-6.24 -2.253,-11.397 -6.738,-15.469 -2.871,-2.58 -6.881,-4.507 -12.039,-5.804 l 20.335,-28.621 c 2.649,-3.705 4.538,-6.015 5.668,-6.922 1.715,-1.292 3.679,-1.998 5.918,-2.125 v -2.307 H 32.804 l -27.257,38.54 z" /></g><g
           transform="translate(1089.3075,515.3103)"
           id="g40"><path
             id="path42"
             style="fill:#70ab2d;fill-opacity:1;fill-rule:nonzero;stroke:none"
             d="m 0,0 v -34.429 h 1.71 c 5.342,0 9.233,1.683 11.642,5.058 2.409,3.364 3.964,8.333 4.627,14.907 h 2.355 v -44.284 h -2.355 c -0.49,4.816 -1.554,8.771 -3.16,11.851 -1.587,3.072 -3.44,5.14 -5.568,6.196 -2.13,1.066 -5.202,1.597 -9.251,1.597 V -62.93 c 0,-4.661 0.208,-7.501 0.611,-8.54 0.402,-1.042 1.134,-1.898 2.199,-2.566 1.083,-0.657 2.828,-0.99 5.237,-0.99 h 5.062 c 7.906,0 14.225,1.832 18.992,5.485 4.764,3.658 8.185,9.24 10.262,16.714 h 2.321 l -3.822,-26.88 h -73.098 v 2.307 h 2.81 c 2.445,0 4.434,0.436 5.927,1.308 1.073,0.591 1.921,1.591 2.487,2.996 0.463,0.999 0.699,3.617 0.699,7.854 V -9.6 c 0,3.813 -0.114,6.166 -0.314,7.047 -0.42,1.454 -1.197,2.571 -2.305,3.365 -1.588,1.156 -3.745,1.745 -6.494,1.745 h -2.81 v 2.304 h 70.795 v -25.004 h -2.376 c -1.203,6.115 -2.897,10.499 -5.077,13.162 -2.183,2.657 -5.273,4.612 -9.269,5.854 C 19.515,-0.37 15.15,0 8.744,0 Z" /></g><g
           transform="translate(453.7438,698.9418)"
           id="g44"><path
             id="path46"
             style="fill:#cf1e25;fill-opacity:1;fill-rule:nonzero;stroke:none"
             d="m 0,0 v -61.001 c 2.295,-0.135 4.029,-0.21 5.211,-0.21 8.465,0 14.989,2.518 19.562,7.549 4.588,5.033 6.873,12.818 6.873,23.368 0,10.479 -2.285,18.15 -6.873,23.011 C 20.2,-2.435 13.363,0 4.272,0 Z m 0,-69.122 v -39.139 c 0,-7.636 0.471,-12.435 1.405,-14.413 0.939,-1.986 2.606,-3.565 5.001,-4.739 2.393,-1.182 6.782,-1.768 13.169,-1.768 v -3.848 h -71.726 v 3.848 c 6.524,0 10.952,0.603 13.278,1.825 2.319,1.203 3.955,2.784 4.889,4.731 0.938,1.945 1.404,6.728 1.404,14.364 v 91.604 c 0,7.632 -0.466,12.437 -1.404,14.418 -0.934,1.978 -2.588,3.556 -4.944,4.74 -2.357,1.173 -6.764,1.761 -13.223,1.761 V 8.12 h 61.52 c 20.26,0 34.801,-3.612 43.621,-10.826 8.809,-7.221 13.213,-16.237 13.213,-27.064 0,-9.158 -2.842,-17.009 -8.531,-23.525 -5.69,-6.524 -13.532,-10.97 -23.525,-13.327 -6.729,-1.666 -18.11,-2.5 -34.147,-2.5" /></g><g
           transform="translate(595.7311,613.7958)"
           id="g48"><path
             id="path50"
             style="fill:#cf1e25;fill-opacity:1;fill-rule:nonzero;stroke:none"
             d="M 0,0 -21.024,48.604 -42.677,0 Z m 3.54,-7.707 h -49.861 l -5.935,-13.741 c -1.936,-4.577 -2.915,-8.365 -2.915,-11.349 0,-3.955 1.599,-6.865 4.797,-8.737 1.863,-1.112 6.485,-1.947 13.841,-2.501 v -3.848 h -46.949 v 3.848 c 5.067,0.759 9.232,2.854 12.493,6.293 3.265,3.439 7.288,10.533 12.075,21.287 L -8.431,96.176 h 1.977 l 50.9,-115.751 c 4.862,-10.968 8.849,-17.875 11.978,-20.715 2.357,-2.153 5.691,-3.403 9.992,-3.745 v -3.848 H -1.871 v 3.848 H 0.94 c 5.48,0 9.329,0.759 11.553,2.287 1.525,1.109 2.292,2.716 2.292,4.793 0,1.246 -0.213,2.53 -0.623,3.847 -0.144,0.629 -1.184,3.234 -3.129,7.812 z" /></g><g
           transform="translate(799.1359,615.4548)"
           id="g52"><path
             id="path54"
             style="fill:#cf1e25;fill-opacity:1;fill-rule:nonzero;stroke:none"
             d="m 0,0 -5.312,-49.542 h -125.327 v 3.848 h 4.683 c 4.098,0 7.393,0.729 9.892,2.183 1.798,0.977 3.191,2.636 4.164,5.001 0.763,1.666 1.143,6.03 1.143,13.108 v 92.856 c 0,7.218 -0.38,11.725 -1.143,13.532 -0.769,1.802 -2.309,3.383 -4.635,4.739 -2.326,1.348 -5.468,2.024 -9.421,2.024 h -4.683 v 3.858 h 75.258 v -3.858 h -6.14 c -4.098,0 -7.393,-0.723 -9.892,-2.18 -1.802,-0.97 -3.221,-2.636 -4.26,-5.001 -0.773,-1.659 -1.151,-6.031 -1.151,-13.114 v -89.941 c 0,-7.213 0.418,-11.808 1.252,-13.785 0.834,-1.985 2.461,-3.455 4.892,-4.419 1.737,-0.63 5.934,-0.948 12.593,-0.948 h 11.765 c 7.492,0 13.738,1.317 18.739,3.961 4.991,2.637 9.315,6.796 12.958,12.494 3.645,5.69 7.088,14.078 10.362,25.184 z" /></g><g
           transform="translate(908.329,614.0009)"
           id="g56"><path
             id="path58"
             style="fill:#cf1e25;fill-opacity:1;fill-rule:nonzero;stroke:none"
             d="m 0,0 38.313,93.061 h 57.446 v -3.858 h -4.573 c -4.172,0 -7.489,-0.723 -9.997,-2.181 -1.73,-0.969 -3.113,-2.605 -4.16,-4.892 -0.76,-1.666 -1.142,-6.004 -1.142,-13.012 v -93.066 c 0,-7.213 0.382,-11.721 1.142,-13.533 0.764,-1.8 2.317,-3.376 4.682,-4.738 2.366,-1.348 5.524,-2.021 9.475,-2.021 h 4.573 v -3.848 H 22.068 v 3.848 h 4.578 c 4.167,0 7.5,0.729 10,2.183 1.729,0.977 3.121,2.635 4.159,5 0.764,1.667 1.145,6.031 1.145,13.109 v 104.62 l -54.124,-128.76 h -2.501 L -69.636,79.735 v -99.411 c 0,-6.937 0.174,-11.205 0.524,-12.802 0.893,-3.476 2.857,-6.302 5.872,-8.483 3.025,-2.183 7.765,-3.279 14.214,-3.279 v -3.848 h -48.303 v 3.848 h 1.458 c 3.12,-0.074 6.044,0.427 8.75,1.505 2.705,1.082 4.743,2.519 6.134,4.321 1.388,1.807 2.466,4.342 3.229,7.601 0.135,0.764 0.207,4.304 0.207,10.622 v 89.309 c 0,7.148 -0.381,11.602 -1.145,13.379 -0.76,1.763 -2.326,3.325 -4.682,4.682 -2.365,1.348 -5.517,2.024 -9.472,2.024 h -4.479 v 3.858 h 57.667 z" /></g><g
           transform="translate(1066.0265,698.9418)"
           id="g60"><path
             id="path62"
             style="fill:#cf1e25;fill-opacity:1;fill-rule:nonzero;stroke:none"
             d="m 0,0 v -57.462 h 2.81 c 8.955,0 15.444,2.81 19.458,8.426 4.031,5.629 6.616,13.917 7.715,24.887 h 3.964 v -73.914 h -3.964 c -0.837,8.053 -2.583,14.646 -5.271,19.782 -2.671,5.136 -5.76,8.587 -9.316,10.358 -3.518,1.768 -8.667,2.659 -15.396,2.659 v -39.768 c 0,-7.775 0.331,-12.532 0.986,-14.261 0.664,-1.735 1.885,-3.159 3.701,-4.271 1.807,-1.108 4.713,-1.667 8.745,-1.667 h 8.435 c 13.179,0 23.739,3.06 31.698,9.16 7.925,6.114 13.65,15.407 17.122,27.9 h 3.842 l -6.354,-44.858 H -53.813 v 3.848 h 4.682 c 4.097,0 7.384,0.729 9.892,2.183 1.794,0.977 3.189,2.636 4.158,5.001 0.759,1.666 1.144,6.03 1.144,13.108 v 92.856 c 0,6.385 -0.175,10.303 -0.524,11.764 -0.685,2.428 -1.968,4.303 -3.843,5.618 -2.636,1.946 -6.254,2.913 -10.827,2.913 h -4.682 V 8.12 H 64.335 v -41.738 h -3.962 c -2.008,10.199 -4.835,17.516 -8.483,21.957 -3.648,4.438 -8.799,7.703 -15.465,9.789 C 32.549,-0.625 25.252,0 14.575,0 Z" /></g><g
           transform="translate(346.2698,562.7529)"
           id="g64"><path
             id="path66"
             style="fill:#cf1e25;fill-opacity:1;fill-rule:evenodd;stroke:none"
             d="m 0,0 c -10.269,26.348 -26.62,50.784 -42.844,74.271 -36.289,52.536 -76.566,102.614 -93.576,169.166 -2.079,-5.698 -3.343,-8.714 -4.294,-11.822 -8.649,-28.295 -20.034,-55.319 -37.368,-79.504 -21.151,-29.512 -42.48,-58.91 -63.776,-88.312 -16.753,-23.124 -31.244,-47.697 -39.587,-74.952 -16.634,-54.337 9.413,-113.388 61.45,-138.715 19.497,-9.491 39.208,-15.413 58.993,-17.892 0.233,1.24 0.376,2.147 0.376,2.147 0,0 12.547,87.694 14.531,131.538 0.039,0.784 -0.175,1.578 -0.27,2.372 -0.641,0.464 -1.288,0.929 -1.929,1.398 -24.174,-24.708 -48.359,-49.407 -72.535,-74.097 -0.017,7.031 1.262,13.524 1.816,20.068 1.872,22.264 11.851,39.305 31.804,49.896 7.841,4.167 16.001,7.745 25.042,12.087 h -92.925 c -0.136,0.45 -0.272,0.904 -0.408,1.357 8.778,6.205 17.622,12.34 26.32,18.668 11,8 23.253,10.483 36.358,7.768 10.778,-2.23 21.383,-5.333 32.701,-8.221 -20.714,20.771 -41.302,41.424 -63.177,63.352 12.689,-2.268 23.922,-4.428 35.206,-6.261 10.679,-1.737 18.852,-7.301 25.812,-15.343 9.963,-11.49 16.939,-24.485 20.986,-39.112 0.384,-1.384 0.968,-2.705 1.517,-4.207 4.063,9.431 7.145,18.68 11.849,27.024 8.836,15.654 19.714,29.36 39.311,32.248 8.184,1.21 16.296,2.868 24.456,4.186 2.317,0.371 4.714,0.262 8.151,0.426 -21.382,-21.412 -41.756,-41.834 -62.941,-63.05 8.888,2.775 16.427,5.533 24.182,7.467 16.924,4.223 33.13,3.516 47.622,-7.895 6.917,-5.447 14.248,-10.37 21.361,-15.584 0.856,-0.624 1.492,-1.579 3.054,-3.294 h -92.896 c 8.248,-3.967 16.575,-7.349 24.259,-11.831 9.827,-5.745 19.549,-12.488 24.455,-23.001 6.794,-14.558 7.601,-30.694 8.801,-46.966 -24.59,24.454 -49.171,48.918 -74.209,73.83 -0.329,-1.571 -0.541,-2.086 -0.519,-2.588 1.985,-43.911 11.319,-130.729 11.746,-134.731 19.86,2.13 39.701,7.636 59.404,16.457 C 0.697,-123.747 21.511,-55.236 0,0" /></g></g></g></g></svg>